<?xml version="1.0" encoding="UTF-8"?>
<svg xmlns="http://www.w3.org/2000/svg" xmlns:xlink="http://www.w3.org/1999/xlink" width="85px" height="85px" viewBox="0 0 85 85" version="1.1">
<defs>
<linearGradient id="linear0" gradientUnits="userSpaceOnUse" x1="780.17975" y1="645.4812" x2="745.17975" y2="738.367" gradientTransform="matrix(0.283068,0,0,0.284702,-169.474309,-178.239179)">
<stop offset="0" style="stop-color:rgb(100%,100%,100%);stop-opacity:1;"/>
<stop offset="1" style="stop-color:rgb(100%,100%,100%);stop-opacity:0;"/>
</linearGradient>
<linearGradient id="linear1" gradientUnits="userSpaceOnUse" x1="225.69531" y1="458.17514" x2="272.14404" y2="505.67514" gradientTransform="matrix(0.283068,0,0,0.284702,-61.20084,-109.910756)">
<stop offset="0" style="stop-color:rgb(100%,100%,100%);stop-opacity:1;"/>
<stop offset="1" style="stop-color:rgb(100%,100%,100%);stop-opacity:0;"/>
</linearGradient>
<linearGradient id="linear2" gradientUnits="userSpaceOnUse" x1="491.85831" y1="501.77405" x2="493.52505" y2="593.77405" gradientTransform="matrix(0.283068,0,0,0.284702,-67.2868,-111.191914)">
<stop offset="0" style="stop-color:rgb(100%,100%,100%);stop-opacity:1;"/>
<stop offset="1" style="stop-color:rgb(100%,100%,100%);stop-opacity:0;"/>
</linearGradient>
<linearGradient id="linear3" gradientUnits="userSpaceOnUse" x1="258.58578" y1="576.95404" x2="317.34494" y2="655.95404" gradientTransform="matrix(0.283068,0,0,0.284702,-63.206599,-111.929827)">
<stop offset="0" style="stop-color:rgb(100%,100%,100%);stop-opacity:1;"/>
<stop offset="1" style="stop-color:rgb(100%,100%,100%);stop-opacity:0;"/>
</linearGradient>
<linearGradient id="linear4" gradientUnits="userSpaceOnUse" x1="332.51733" y1="360.37576" x2="361.7869" y2="412.49451" gradientTransform="matrix(0.283068,0,0,0.284702,-63.960752,-107.419615)">
<stop offset="0" style="stop-color:rgb(100%,100%,100%);stop-opacity:1;"/>
<stop offset="1" style="stop-color:rgb(100%,100%,100%);stop-opacity:0;"/>
</linearGradient>
<linearGradient id="linear5" gradientUnits="userSpaceOnUse" x1="477.83298" y1="376.63678" x2="470.40836" y2="466.41241" gradientTransform="matrix(0.283068,0,0,0.284702,-65.008032,-107.903536)">
<stop offset="0" style="stop-color:rgb(100%,100%,100%);stop-opacity:1;"/>
<stop offset="1" style="stop-color:rgb(100%,100%,100%);stop-opacity:0;"/>
</linearGradient>
</defs>
<g id="surface1">
<path style="fill:none;stroke-width:1;stroke-linecap:butt;stroke-linejoin:miter;stroke:rgb(0%,0%,0%);stroke-opacity:1;stroke-miterlimit:4;" d="M 520.227972 542.233664 C 520.254404 612.545698 464.165618 669.54699 394.966541 669.54699 C 325.78068 669.54699 269.691894 612.545698 269.70511 542.233664 C 269.691894 471.921631 325.78068 414.920338 394.966541 414.920338 C 464.165618 414.920338 520.254404 471.921631 520.227972 542.233664 Z M 520.227972 542.233664 " transform="matrix(0.295569,0,0,0.299335,-73.54859,-119.462031)"/>
<path style="fill-rule:evenodd;fill:rgb(100%,100%,100%);fill-opacity:1;stroke-width:1;stroke-linecap:butt;stroke-linejoin:miter;stroke:rgb(0%,0%,0%);stroke-opacity:1;stroke-miterlimit:4;" d="M 280.34588 484.848784 C 283.078219 480.718914 321.261969 475.765814 326.919844 478.304106 C 332.881311 480.993324 356.009596 514.430178 356.75478 520.192787 C 357.458564 525.612384 344.59725 572.289519 340.650538 575.801966 C 336.924621 579.136047 297.595496 584.473321 294.490565 583.046389 C 291.068241 581.482252 265.345614 544.409466 265.083419 538.194081 C 264.793626 531.635683 277.696339 488.841449 280.34588 484.848784 Z M 280.34588 484.848784 " transform="matrix(0.283068,0,0,0.284702,-63.606917,-106.494335)"/>
<path style="fill-rule:evenodd;fill:rgb(0%,0%,0%);fill-opacity:1;stroke-width:1;stroke-linecap:butt;stroke-linejoin:miter;stroke:rgb(0%,0%,0%);stroke-opacity:1;stroke-miterlimit:4;" d="M 327.858223 478.070858 C 326.823246 482.626063 355.609405 516.584296 357.141171 520.741607 C 367.684137 517.078234 407.592849 510.451234 410.711579 507.007389 C 414.009706 503.371457 414.423697 462.031596 413.209324 455.212508 C 408.86242 451.41193 368.291323 433.76737 363.571828 437.005407 C 356.699581 438.926277 328.906999 473.460771 327.858223 478.070858 Z M 327.858223 478.070858 " transform="matrix(0.283068,0,0,0.284702,-63.606917,-106.494335)"/>
<path style="fill-rule:evenodd;fill:rgb(100%,100%,100%);fill-opacity:1;stroke-width:1;stroke-linecap:butt;stroke-linejoin:miter;stroke:rgb(0%,0%,0%);stroke-opacity:1;stroke-miterlimit:4;" d="M 357.499963 521.290427 C 362.205658 517.133116 405.578093 505.909749 411.787955 507.912941 C 417.901219 509.861252 446.977172 541.267472 448.384741 547.716107 C 447.777554 553.657082 434.516049 592.280284 432.501294 598.427068 C 427.781799 602.008118 383.181192 614.329125 378.930886 612.723827 C 374.997974 611.228292 340.760936 580.096482 341.078328 574.868972 C 341.381922 569.641463 353.001263 525.269372 357.499963 521.290427 Z M 357.499963 521.290427 " transform="matrix(0.283068,0,0,0.284702,-63.606917,-106.494335)"/>
<path style="fill-rule:evenodd;fill:rgb(100%,100%,100%);fill-opacity:1;stroke-width:1;stroke-linecap:butt;stroke-linejoin:miter;stroke:rgb(0%,0%,0%);stroke-opacity:1;stroke-miterlimit:4;" d="M 270.203106 454.15603 C 270.203106 454.15603 276.592363 481.885156 279.642095 484.149039 C 282.512432 486.275716 322.986931 479.78592 326.423055 477.714125 C 329.596984 475.806976 363.061239 440.751103 362.854244 436.291941 C 362.647249 431.832779 355.512807 410.09951 351.428098 407.725864 C 347.067395 405.187572 305.709715 413.433591 305.709715 413.433591 C 293.345191 422.722369 265.580208 444.222389 270.203106 454.15603 Z M 270.203106 454.15603 " transform="matrix(0.283068,0,0,0.284702,-63.606917,-106.494335)"/>
<path style="fill-rule:evenodd;fill:rgb(100%,100%,100%);fill-opacity:1;stroke-width:1;stroke-linecap:butt;stroke-linejoin:miter;stroke:rgb(0%,0%,0%);stroke-opacity:1;stroke-miterlimit:4;" d="M 351.621294 407.177044 C 356.782379 404.323181 384.643959 396.104602 392.661581 392.015894 C 411.001373 391.412192 439.966928 406.257771 443.92744 410.593448 C 443.92744 410.593448 452.48325 432.39532 453.200834 440.037637 C 449.819909 443.865656 421.323543 453.840458 414.823888 454.677409 C 408.296633 455.514359 363.392432 435.564755 363.392432 435.564755 C 363.392432 435.564755 356.009596 411.649927 351.621294 407.177044 Z M 351.621294 407.177044 " transform="matrix(0.283068,0,0,0.284702,-63.606917,-106.494335)"/>
<path style="fill-rule:evenodd;fill:rgb(100%,100%,100%);fill-opacity:1;stroke-width:1;stroke-linecap:butt;stroke-linejoin:miter;stroke:rgb(0%,0%,0%);stroke-opacity:1;stroke-miterlimit:4;" d="M 453.214633 440.92947 C 458.430917 438.871395 483.532559 469.207416 490.708399 480.32102 C 494.089324 495.235201 486.071702 532.719602 486.071702 532.719602 C 486.071702 532.719602 452.621247 548.223765 448.205345 547.52402 C 445.100414 542.666963 411.787955 507.185755 411.787955 507.185755 C 411.787955 507.185755 413.457718 456.227825 414.644492 454.855775 C 416.162458 453.113272 448.205345 442.905221 453.214633 440.92947 Z M 453.214633 440.92947 " transform="matrix(0.283068,0,0,0.284702,-63.606917,-106.494335)"/>
<path style="fill-rule:evenodd;fill:rgb(0%,0%,0%);fill-opacity:1;stroke-width:1;stroke-linecap:butt;stroke-linejoin:miter;stroke:rgb(0%,0%,0%);stroke-opacity:1;stroke-miterlimit:4;" d="M 269.471722 449.518501 C 269.471722 449.518501 276.909756 481.048206 280.000888 485.57597 C 277.723938 490.817201 269.816714 511.644917 264.724627 537.974553 C 261.647296 538.784062 247.861403 537.35713 247.861403 537.35713 C 242.079331 510.08078 256.596608 465.104987 269.471722 449.518501 Z M 269.471722 449.518501 " transform="matrix(0.283068,0,0,0.284702,-63.606917,-106.494335)"/>
<path style="fill-rule:evenodd;fill:rgb(0%,0%,0%);fill-opacity:1;stroke-width:1;stroke-linecap:butt;stroke-linejoin:miter;stroke:rgb(0%,0%,0%);stroke-opacity:1;stroke-miterlimit:4;" d="M 448.674534 548.443293 C 452.91104 546.275454 463.881796 544.327143 486.789286 533.076335 C 491.467382 542.900212 496.324874 562.067748 492.502359 575.582438 C 491.701977 580.87855 460.362874 614.864224 460.362874 614.864224 C 460.362874 614.864224 440.725911 608.168621 433.218878 597.713602 C 437.482983 587.272303 443.844642 561.642412 448.674534 548.443293 Z M 448.674534 548.443293 " transform="matrix(0.283068,0,0,0.284702,-63.606917,-106.494335)"/>
<path style="fill-rule:evenodd;fill:rgb(0%,0%,0%);fill-opacity:1;stroke-width:1;stroke-linecap:butt;stroke-linejoin:miter;stroke:rgb(0%,0%,0%);stroke-opacity:1;stroke-miterlimit:4;" d="M 294.918356 583.704973 C 309.021642 584.294955 335.006464 578.079569 340.001952 575.939171 C 342.610094 580.357172 367.366744 606.535882 378.489296 613.258926 C 370.982263 616.839976 356.423587 641.289904 356.423587 641.289904 C 356.423587 641.289904 312.195571 632.275536 308.138461 625.662256 C 303.970954 618.898051 296.381123 587.766241 294.918356 583.704973 Z M 294.918356 583.704973 " transform="matrix(0.283068,0,0,0.284702,-63.606917,-106.494335)"/>
<path style="fill-rule:evenodd;fill:rgb(100%,100%,100%);fill-opacity:1;stroke-width:1;stroke-linecap:butt;stroke-linejoin:miter;stroke:rgb(0%,0%,0%);stroke-opacity:1;stroke-miterlimit:4;" d="M 247.323215 538.18036 C 247.323215 538.18036 258.473367 536.876913 265.000621 538.784062 C 269.168129 547.414256 294.28357 583.07383 294.28357 583.07383 C 294.28357 583.07383 306.703293 620.201498 307.503676 625.579933 C 304.288347 628.79053 299.279059 631.644394 299.279059 631.644394 C 299.279059 631.644394 278.400123 615.001429 265.180017 593.52885 C 251.849514 571.891624 247.323215 538.18036 247.323215 538.18036 Z M 247.323215 538.18036 " transform="matrix(0.283068,0,0,0.284702,-63.606917,-106.494335)"/>
<path style="fill-rule:evenodd;fill:rgb(0%,0%,0%);fill-opacity:1;stroke-width:1;stroke-linecap:butt;stroke-linejoin:miter;stroke:rgb(0%,0%,0%);stroke-opacity:1;stroke-miterlimit:4;" d="M 306.620495 412.445715 C 330.397366 408.315846 349.772135 406.998678 351.966286 406.737988 C 354.05004 406.477299 392.137192 392.002173 392.137192 392.002173 C 392.137192 392.002173 364.165215 390.424316 346.432609 394.499304 C 331.14255 398.025472 310.788002 408.960709 306.620495 412.445715 Z M 306.620495 412.445715 " transform="matrix(0.283068,0,0,0.284702,-63.606917,-106.494335)"/>
<path style="fill-rule:evenodd;fill:rgb(0%,0%,0%);fill-opacity:1;stroke-width:1;stroke-linecap:butt;stroke-linejoin:miter;stroke:rgb(0%,0%,0%);stroke-opacity:1;stroke-miterlimit:4;" d="M 444.286232 410.222995 C 444.286232 410.222995 452.48325 434.906171 454.015016 440.037637 C 466.131146 444.853532 491.067191 478.784324 491.067191 478.784324 L 497.939438 473.43333 C 497.939438 473.43333 484.81593 446.925327 477.143301 437.718873 C 469.99506 429.143562 445.7076 410.222995 444.286232 410.222995 Z M 444.286232 410.222995 " transform="matrix(0.283068,0,0,0.284702,-63.606917,-106.494335)"/>
<path style="fill-rule:evenodd;fill:rgb(100%,100%,100%);fill-opacity:1;stroke-width:1;stroke-linecap:butt;stroke-linejoin:miter;stroke:rgb(0%,0%,0%);stroke-opacity:1;stroke-miterlimit:4;" d="M 490.735999 479.538951 C 496.683666 474.750497 498.215432 473.625417 498.215432 473.625417 C 498.284431 473.625417 509.130989 503.810513 508.17881 526.463055 C 507.433627 544.203659 503.169522 563.371195 500.230187 570.437251 C 499.319408 571.946506 497.691044 572.701134 492.681755 574.937575 C 497.41505 563.645605 490.128812 536.79459 486.264898 532.513795 C 488.666045 524.322657 491.025792 484.437169 490.735999 479.538951 Z M 490.735999 479.538951 " transform="matrix(0.283068,0,0,0.284702,-63.606917,-106.494335)"/>
<path style="fill-rule:evenodd;fill:rgb(100%,100%,100%);fill-opacity:1;stroke-width:1;stroke-linecap:butt;stroke-linejoin:miter;stroke:rgb(0%,0%,0%);stroke-opacity:1;stroke-miterlimit:4;" d="M 300.272636 631.630673 L 307.338079 625.826902 C 307.338079 625.826902 326.036663 636.391686 356.326989 641.72896 C 356.547784 647.162277 366.690559 657.891707 366.690559 657.891707 C 366.690559 657.891707 341.174926 654.365538 321.979553 644.76119 C 302.79798 635.170562 300.272636 631.891363 300.272636 631.630673 Z M 300.272636 631.630673 " transform="matrix(0.283068,0,0,0.284702,-63.606917,-106.494335)"/>
<path style="fill-rule:evenodd;fill:rgb(100%,100%,100%);fill-opacity:1;stroke-width:1;stroke-linecap:butt;stroke-linejoin:miter;stroke:rgb(0%,0%,0%);stroke-opacity:1;stroke-miterlimit:4;" d="M 378.710091 612.998237 C 396.939486 611.516423 433.60527 598.550552 433.60527 598.550552 C 433.60527 598.550552 455.822775 614.095876 460.376674 614.46633 C 460.376674 620.887523 459.617691 628.104505 459.617691 628.104505 C 459.617691 628.104505 441.69189 644.267252 417.956418 651.333308 C 386.713913 660.635806 366.428364 657.891707 366.428364 657.891707 C 366.428364 657.891707 359.611316 649.906377 356.326989 642.497308 C 357.334367 637.105152 374.790978 615.371883 378.710091 612.998237 Z M 378.710091 612.998237 " transform="matrix(0.283068,0,0,0.284702,-63.606917,-106.494335)"/>
<path style="fill-rule:evenodd;fill:rgb(100%,100%,100%);fill-opacity:1;stroke-width:1;stroke-linecap:butt;stroke-linejoin:miter;stroke:rgb(0%,0%,0%);stroke-opacity:1;stroke-miterlimit:4;" d="M 460.887263 614.329125 C 472.879196 603.256683 493.040547 575.047339 493.040547 575.047339 L 499.291808 572.001388 C 499.291808 572.001388 490.170211 594.228595 482.856374 603.435049 C 474.673156 613.752864 459.824686 627.720331 459.824686 627.720331 C 459.824686 627.720331 461.218455 622.904436 460.887263 614.329125 Z M 460.887263 614.329125 " transform="matrix(0.283068,0,0,0.284702,-63.606917,-106.494335)"/>
<path style=" stroke:none;fill-rule:evenodd;fill:url(#linear0);" d="M 29.382812 29.84375 C 42.386719 30.359375 51.234375 29.703125 53.542969 23.335938 C 52.3125 22.253906 40.828125 18.011719 39.492188 17.796875 C 37.972656 18.984375 29.679688 28.53125 29.382812 29.84375 Z M 29.382812 29.84375 "/>
<path style=" stroke:none;fill-rule:evenodd;fill:url(#linear1);" d="M 12.710938 21.429688 C 12.710938 21.429688 14.535156 29.410156 15.410156 30.699219 C 14.765625 32.191406 12.105469 32.566406 9.8125 39.640625 C 5.445312 34.234375 10.050781 30.078125 12.710938 21.429688 Z M 12.710938 21.429688 "/>
<path style=" stroke:none;fill-rule:evenodd;fill:url(#linear2);" d="M 63.296875 49.734375 C 64.496094 49.121094 67.605469 48.5625 74.085938 45.359375 C 79.285156 55.769531 71.480469 47.949219 58.921875 63.765625 C 60.128906 60.792969 61.929688 53.492188 63.296875 49.734375 Z M 63.296875 49.734375 "/>
<path style=" stroke:none;fill-rule:evenodd;fill:url(#linear3);" d="M 19.890625 59.605469 C 23.882812 59.773438 31.238281 58.003906 32.652344 57.394531 C 33.390625 58.652344 37.992188 63.828125 41.140625 65.742188 C 30.925781 66.816406 23.996094 73.792969 19.890625 59.605469 Z M 19.890625 59.605469 "/>
<path style=" stroke:none;fill-rule:evenodd;fill:url(#linear4);" d="M 23.300781 10.800781 C 30.027344 9.628906 33.914062 9.253906 34.53125 9.175781 C 36.539062 6.363281 47.609375 3.621094 34.566406 5.695312 C 30.242188 6.695312 24.476562 9.808594 23.300781 10.800781 Z M 23.300781 10.800781 "/>
<path style=" stroke:none;fill-rule:evenodd;fill:url(#linear5);" d="M 61.921875 9.996094 C 61.921875 9.996094 64.242188 17.027344 64.675781 18.488281 C 70.765625 19.339844 76.164062 26.917969 71.222656 17.828125 C 69.199219 15.386719 62.324219 9.996094 61.921875 9.996094 Z M 61.921875 9.996094 "/>
</g>
</svg>
