<?xml version="1.0" encoding="UTF-8"?>
<svg xmlns="http://www.w3.org/2000/svg" xmlns:xlink="http://www.w3.org/1999/xlink" width="146px" height="85px" viewBox="0 0 145 85" version="1.1">
<g id="surface1">
<path style="fill-rule:nonzero;fill:rgb(72.941176%,72.941176%,72.941176%);fill-opacity:1;stroke-width:5;stroke-linecap:round;stroke-linejoin:round;stroke:rgb(87.058824%,87.058824%,87.058824%);stroke-opacity:1;stroke-miterlimit:4;" d="M 79.71199 46.431985 C 70.608542 46.431985 63.21199 53.830882 63.21199 62.941176 C 63.21199 69.490809 67.039576 75.126838 72.58699 77.777574 C 72.160266 115.556985 54.742162 90.786765 54.742162 111.091912 L 54.7163 117.0625 L 104.681818 117.0625 L 104.655956 111.091912 C 104.655956 90.786765 87.263714 115.556985 86.83699 77.777574 C 92.371473 75.113971 96.21199 69.477941 96.21199 62.941176 C 96.21199 53.830882 88.815438 46.431985 79.71199 46.431985 Z M 79.71199 46.431985 " transform="matrix(0.302083,0,0,0.303571,-9.126539,-8.177455)"/>
<path style="fill-rule:nonzero;fill:rgb(72.941176%,72.941176%,72.941176%);fill-opacity:1;stroke-width:5;stroke-linecap:round;stroke-linejoin:round;stroke:rgb(87.058824%,87.058824%,87.058824%);stroke-opacity:1;stroke-miterlimit:4;" d="M 122.293887 46.431985 L 122.319749 52.441176 C 122.319749 82.641544 123.08268 107.347426 147.250783 121.295956 C 171.780956 107.141544 172.220611 83.580882 172.220611 52.441176 L 172.220611 46.431985 L 163.595611 46.431985 L 163.595611 54.834559 L 151.595611 54.834559 L 151.595611 46.431985 L 142.944749 46.431985 L 142.944749 54.834559 L 130.918887 54.834559 L 130.918887 46.431985 Z M 122.293887 46.431985 " transform="matrix(0.302083,0,0,0.303571,-9.126539,-8.177455)"/>
<path style="fill-rule:nonzero;fill:rgb(72.941176%,72.941176%,72.941176%);fill-opacity:1;stroke-width:5;stroke-linecap:round;stroke-linejoin:round;stroke:rgb(87.058824%,87.058824%,87.058824%);stroke-opacity:1;stroke-miterlimit:4;" d="M 213.186128 65.205882 L 195.936128 81.341912 L 204.186128 90.838235 L 222.431818 84.584559 C 222.431818 84.584559 212.229231 90.284926 203.436128 99.086397 C 194.552507 107.965074 196.375783 124.770221 199.556818 131.834559 L 249.186128 131.834559 C 229.686128 107.836397 265.867162 84.25 252.936128 61.834559 C 240.328369 40.011029 220.052507 43.395221 207.806818 59.466912 C 209.681818 61.332721 211.453369 63.481618 213.186128 65.205882 Z M 213.186128 65.205882 " transform="matrix(0.302083,0,0,0.303571,-9.126539,-8.177455)"/>
<path style="fill-rule:nonzero;fill:rgb(72.941176%,72.941176%,72.941176%);fill-opacity:1;stroke-width:5;stroke-linecap:round;stroke-linejoin:round;stroke:rgb(87.058824%,87.058824%,87.058824%);stroke-opacity:1;stroke-miterlimit:4;" d="M 301.401645 46.431985 L 280.026645 64.189338 L 287.901645 86.784926 C 283.815438 90.465074 281.2163 95.805147 281.2163 101.75 C 281.2163 108.595588 284.655956 114.643382 289.880093 118.284926 C 282.328369 118.915441 277.155956 120.137868 277.155956 121.566176 C 277.155956 123.238971 284.306818 124.615809 294.121473 125.091912 C 292.453369 145.71875 276.405956 128.797794 276.405956 148.279412 L 276.405956 154.25 L 326.345611 154.25 L 326.345611 148.279412 C 326.345611 128.810662 310.311128 145.667279 308.630093 125.091912 C 318.45768 124.615809 325.660266 123.238971 325.660266 121.566176 C 325.660266 120.137868 320.449059 118.915441 312.910266 118.284926 C 318.134404 114.643382 321.535266 108.595588 321.535266 101.75 C 321.535266 95.818015 318.987852 90.503676 314.901645 86.810662 L 322.776645 64.189338 Z M 301.375783 59.878676 C 301.996473 59.878676 302.500783 60.380515 302.500783 60.998162 L 302.500783 66.441176 L 308.151645 66.441176 C 308.785266 66.441176 309.276645 66.852941 309.276645 67.380515 C 309.276645 67.895221 308.785266 68.306985 308.151645 68.306985 L 302.500783 68.306985 L 302.500783 77.751838 C 302.500783 78.369485 301.996473 78.871324 301.375783 78.871324 C 300.755093 78.871324 300.250783 78.369485 300.250783 77.751838 L 300.250783 68.306985 L 294.599921 68.306985 C 293.9663 68.306985 293.474921 67.895221 293.474921 67.380515 C 293.474921 66.852941 293.9663 66.441176 294.599921 66.441176 L 300.250783 66.441176 L 300.250783 60.998162 C 300.250783 60.380515 300.755093 59.878676 301.375783 59.878676 Z M 301.375783 59.878676 " transform="matrix(0.302083,0,0,0.303571,-9.126539,-8.177455)"/>
<path style="fill-rule:nonzero;fill:rgb(72.941176%,72.941176%,72.941176%);fill-opacity:1;stroke-width:5;stroke-linecap:round;stroke-linejoin:round;stroke:rgb(87.058824%,87.058824%,87.058824%);stroke-opacity:1;stroke-miterlimit:4;" d="M 378.418887 46.431985 L 373.078369 66.286765 L 362.423197 59.003676 L 361.168887 75.71875 L 350.953369 74.033088 L 361.362852 98.185662 L 361.737852 98.185662 C 359.565438 101.402574 358.272335 105.301471 358.272335 109.470588 C 358.272335 116.625 362.022335 122.865809 367.647335 126.443015 C 359.539576 127.047794 353.927507 128.334559 353.927507 129.814338 C 353.927507 131.5 361.194749 132.889706 371.138714 133.378676 C 369.289576 155.369485 353.449059 158.045956 353.449059 168.6875 L 353.449059 174.658088 L 403.388714 174.658088 L 403.362852 168.6875 C 403.362852 158.946691 387.535266 155.768382 385.699059 133.378676 C 395.668887 132.902574 402.949059 131.5 402.949059 129.814338 C 402.949059 128.334559 397.33699 127.047794 389.242162 126.443015 C 394.854231 122.865809 398.578369 116.612132 398.578369 109.470588 C 398.578369 105.301471 397.311128 101.402574 395.138714 98.185662 L 395.513714 98.185662 L 405.923197 74.033088 L 395.70768 75.71875 L 394.427507 59.003676 L 383.772335 66.286765 Z M 378.418887 46.431985 " transform="matrix(0.302083,0,0,0.303571,-9.126539,-8.177455)"/>
<path style="fill-rule:nonzero;fill:rgb(72.941176%,72.941176%,72.941176%);fill-opacity:1;stroke-width:5;stroke-linecap:round;stroke-linejoin:round;stroke:rgb(87.058824%,87.058824%,87.058824%);stroke-opacity:1;stroke-miterlimit:4;" d="M 452.526645 46.431985 L 452.526645 57.318015 L 439.130093 57.318015 L 439.130093 64.5625 L 452.526645 64.5625 L 452.526645 77.931985 L 434.436128 87.222426 L 440.940438 102.560662 C 437.474921 106.189338 435.3413 111.091912 435.3413 116.496324 C 435.3413 123.998162 439.453369 130.534926 445.530956 133.996324 C 436.8413 134.819853 430.750783 136.659926 430.750783 138.808824 C 430.750783 141.137868 437.888714 143.09375 447.755093 143.775735 C 444.599921 162.060662 430.530956 164.775735 430.530956 183.034926 L 430.530956 189.005515 L 480.470611 189.005515 L 480.431818 183.034926 C 480.431818 164.634191 466.155956 163.4375 463.155956 143.775735 C 473.061128 143.09375 480.250783 141.150735 480.250783 138.808824 C 480.250783 136.659926 474.147335 134.819853 465.431818 133.996324 C 471.535266 130.534926 475.660266 124.011029 475.660266 116.496324 C 475.660266 111.349265 473.720611 106.652574 470.526645 103.088235 L 477.561128 87.222426 L 459.470611 77.931985 L 459.470611 64.5625 L 472.880093 64.5625 L 472.880093 57.318015 L 459.470611 57.318015 L 459.470611 46.431985 Z M 452.526645 46.431985 " transform="matrix(0.302083,0,0,0.303571,-9.126539,-8.177455)"/>
<path style="fill-rule:nonzero;fill:rgb(25.098039%,25.098039%,25.098039%);fill-opacity:1;stroke-width:5;stroke-linecap:round;stroke-linejoin:round;stroke:rgb(56.862745%,56.862745%,56.862745%);stroke-opacity:1;stroke-miterlimit:4;" d="M 455.474921 215.371324 C 464.578369 215.371324 471.974921 222.770221 471.974921 231.880515 C 471.974921 238.430147 468.134404 244.053309 462.599921 246.716912 C 463.013714 284.496324 480.431818 259.726103 480.431818 280.03125 L 480.470611 286.001838 L 430.505093 286.001838 L 430.530956 280.03125 C 430.530956 259.726103 447.923197 284.496324 448.349921 246.716912 C 442.815438 244.053309 438.974921 238.417279 438.974921 231.880515 C 438.974921 222.770221 446.358542 215.371324 455.474921 215.371324 Z M 455.474921 215.371324 " transform="matrix(0.302083,0,0,0.303571,-9.126539,-8.177455)"/>
<path style="fill-rule:nonzero;fill:rgb(25.098039%,25.098039%,25.098039%);fill-opacity:1;stroke-width:5;stroke-linecap:round;stroke-linejoin:round;stroke:rgb(56.862745%,56.862745%,56.862745%);stroke-opacity:1;stroke-miterlimit:4;" d="M 412.893024 211.137868 L 412.867162 217.134191 C 412.867162 247.334559 412.104231 272.040441 387.923197 286.001838 C 363.393024 271.834559 362.953369 248.273897 362.953369 217.134191 L 362.953369 211.137868 L 371.578369 211.137868 L 371.578369 219.540441 L 383.578369 219.540441 L 383.578369 211.137868 L 392.242162 211.137868 L 392.242162 219.540441 L 404.268024 219.540441 L 404.268024 211.137868 Z M 412.893024 211.137868 " transform="matrix(0.302083,0,0,0.303571,-9.126539,-8.177455)"/>
<path style="fill-rule:nonzero;fill:rgb(25.098039%,25.098039%,25.098039%);fill-opacity:1;stroke-width:5;stroke-linecap:round;stroke-linejoin:round;stroke:rgb(56.862745%,56.862745%,56.862745%);stroke-opacity:1;stroke-miterlimit:4;" d="M 322.000783 219.373162 L 339.250783 235.496324 L 331.000783 245.005515 L 312.742162 238.751838 C 312.742162 238.751838 322.944749 244.452206 331.750783 253.253676 C 340.634404 262.132353 338.798197 278.924632 335.617162 286.001838 L 286.000783 286.001838 C 305.500783 262.003676 269.306818 238.417279 282.250783 216.001838 C 294.845611 194.178309 315.134404 197.5625 327.367162 213.634191 C 325.505093 215.5 323.720611 217.648897 322.000783 219.373162 Z M 322.000783 219.373162 " transform="matrix(0.302083,0,0,0.303571,-9.126539,-8.177455)"/>
<path style="fill-rule:nonzero;fill:rgb(25.098039%,25.098039%,25.098039%);fill-opacity:1;stroke-width:5;stroke-linecap:round;stroke-linejoin:round;stroke:rgb(56.862745%,56.862745%,56.862745%);stroke-opacity:1;stroke-miterlimit:4;" d="M 233.772335 178.183824 L 255.147335 195.941176 L 247.272335 218.536765 C 251.371473 222.216912 253.95768 227.556985 253.95768 233.501838 C 253.95768 240.334559 250.518024 246.395221 245.306818 250.036765 C 252.845611 250.667279 258.030956 251.889706 258.030956 253.318015 C 258.030956 254.990809 250.867162 256.367647 241.052507 256.84375 C 242.733542 277.457721 258.780956 260.549632 258.780956 280.03125 L 258.780956 286.001838 L 208.8413 286.001838 L 208.8413 280.03125 C 208.8413 260.5625 224.875783 277.40625 226.556818 256.84375 C 216.729231 256.367647 209.526645 254.990809 209.526645 253.318015 C 209.526645 251.889706 214.737852 250.667279 222.276645 250.036765 C 217.052507 246.395221 213.651645 240.347426 213.651645 233.501838 C 213.651645 227.569853 216.199059 222.255515 220.272335 218.5625 L 212.397335 195.941176 Z M 233.811128 191.630515 C 233.177507 191.630515 232.686128 192.132353 232.686128 192.75 L 232.686128 198.193015 L 227.022335 198.193015 C 226.401645 198.193015 225.897335 198.604779 225.897335 199.119485 C 225.897335 199.647059 226.401645 200.058824 227.022335 200.058824 L 232.686128 200.058824 L 232.686128 209.503676 C 232.686128 210.121324 233.177507 210.623162 233.811128 210.623162 C 234.431818 210.623162 234.936128 210.121324 234.936128 209.503676 L 234.936128 200.058824 L 240.58699 200.058824 C 241.20768 200.058824 241.71199 199.647059 241.71199 199.119485 C 241.71199 198.604779 241.20768 198.193015 240.58699 198.193015 L 234.936128 198.193015 L 234.936128 192.75 C 234.936128 192.132353 234.431818 191.630515 233.811128 191.630515 Z M 233.811128 191.630515 " transform="matrix(0.302083,0,0,0.303571,-9.126539,-8.177455)"/>
<path style="fill-rule:nonzero;fill:rgb(25.098039%,25.098039%,25.098039%);fill-opacity:1;stroke-width:5;stroke-linecap:round;stroke-linejoin:round;stroke:rgb(56.862745%,56.862745%,56.862745%);stroke-opacity:1;stroke-miterlimit:4;" d="M 156.755093 157.775735 L 162.095611 177.630515 L 172.750783 170.347426 L 174.005093 187.0625 L 184.220611 185.376838 L 173.824059 209.529412 L 173.449059 209.529412 C 175.621473 212.746324 176.914576 216.645221 176.914576 220.814338 C 176.914576 227.96875 173.164576 234.209559 167.539576 237.786765 C 175.634404 238.391544 181.259404 239.678309 181.259404 241.158088 C 181.259404 242.84375 173.992162 244.233456 164.035266 244.722426 C 165.884404 266.713235 181.724921 269.389706 181.724921 280.03125 L 181.724921 286.001838 L 131.785266 286.001838 L 131.824059 280.03125 C 131.824059 270.290441 147.651645 267.112132 149.474921 244.722426 C 139.518024 244.246324 132.224921 242.84375 132.224921 241.158088 C 132.224921 239.678309 137.849921 238.391544 145.944749 237.786765 C 140.33268 234.209559 136.595611 227.955882 136.595611 220.814338 C 136.595611 216.645221 137.862852 212.746324 140.035266 209.529412 L 139.660266 209.529412 L 129.250783 185.376838 L 139.479231 187.0625 L 140.759404 170.347426 L 151.414576 177.630515 Z M 156.755093 157.775735 " transform="matrix(0.302083,0,0,0.303571,-9.126539,-8.177455)"/>
<path style="fill-rule:nonzero;fill:rgb(25.098039%,25.098039%,25.098039%);fill-opacity:1;stroke-width:5;stroke-linecap:round;stroke-linejoin:round;stroke:rgb(56.862745%,56.862745%,56.862745%);stroke-opacity:1;stroke-miterlimit:4;" d="M 82.647335 143.441176 L 82.647335 154.314338 L 96.056818 154.314338 L 96.056818 161.558824 L 82.647335 161.558824 L 82.647335 174.941176 L 100.737852 184.21875 L 94.246473 199.556985 C 97.71199 203.185662 99.83268 208.088235 99.83268 213.505515 C 99.83268 220.994485 95.733542 227.53125 89.643024 231.005515 C 98.345611 231.816176 104.436128 233.669118 104.436128 235.818015 C 104.436128 238.134191 97.298197 240.090074 87.431818 240.784926 C 90.574059 259.069853 104.643024 261.772059 104.643024 280.03125 L 104.643024 286.001838 L 54.7163 286.001838 L 54.742162 280.03125 C 54.742162 261.630515 69.030956 260.433824 72.018024 240.784926 C 62.112852 240.090074 54.936128 238.147059 54.936128 235.818015 C 54.936128 233.669118 61.026645 231.816176 69.742162 231.005515 C 63.651645 227.53125 59.526645 221.007353 59.526645 213.505515 C 59.526645 208.345588 61.4663 203.661765 64.647335 200.097426 L 57.612852 184.21875 L 75.7163 174.941176 L 75.7163 161.558824 L 62.306818 161.558824 L 62.306818 154.314338 L 75.7163 154.314338 L 75.7163 143.441176 Z M 82.647335 143.441176 " transform="matrix(0.302083,0,0,0.303571,-9.126539,-8.177455)"/>
</g>
</svg>
