<?xml version="1.0" encoding="UTF-8"?>
<svg xmlns="http://www.w3.org/2000/svg" xmlns:xlink="http://www.w3.org/1999/xlink" width="82px" height="85px" viewBox="0 0 82 84" version="1.1">
<g id="surface1">
<path style=" stroke:none;fill-rule:nonzero;fill:rgb(0%,0%,0%);fill-opacity:1;" d="M 23.546875 28.21875 C 23.820312 27.664062 24.140625 26.828125 24.140625 26.183594 C 24.140625 24.117188 24.207031 24.324219 25.566406 22.921875 C 26.1875 22.277344 28.703125 22.125 28.167969 20.53125 C 28 20.039062 24.128906 15.03125 23.375 15.03125 C 19.9375 15.03125 17.042969 18.0625 17.132812 21.507812 C 17.195312 24.089844 21.183594 31.644531 23.546875 28.21875 "/>
<path style=" stroke:none;fill-rule:nonzero;fill:rgb(71.372549%,94.901961%,38.039216%);fill-opacity:1;" d="M 23.308594 17.621094 C 24.8125 17.699219 27.429688 18.921875 27.109375 20.800781 C 26.894531 22.050781 23.964844 22.226562 23.1875 23.625 C 22.683594 24.542969 23.964844 27.746094 22.238281 28.21875 C 20.914062 28.582031 19.210938 24.746094 18.914062 23.980469 C 18.375 22.597656 18.183594 21.304688 18.4375 20.09375 C 18.875 18.035156 22.511719 13.820312 24.140625 17.03125 C 23.863281 17.226562 23.585938 17.425781 23.308594 17.621094 "/>
<path style=" stroke:none;fill-rule:nonzero;fill:rgb(0%,0%,0%);fill-opacity:1;" d="M 36.136719 12.4375 C 33.4375 16.464844 30.796875 11.1875 30.390625 8.757812 C 30.074219 6.871094 31.082031 5.003906 30.765625 3.007812 C 30.550781 1.664062 29.546875 -0.433594 32.121094 0.078125 C 35.652344 0.78125 39.582031 4.085938 41.175781 7.242188 C 41.644531 8.171875 41.328125 11.292969 40.410156 12.085938 C 38.757812 13.515625 37.886719 11.910156 36.136719 12.4375 "/>
<path style=" stroke:none;fill-rule:nonzero;fill:rgb(71.372549%,94.901961%,38.039216%);fill-opacity:1;" d="M 37.085938 10.554688 C 37.789062 11.292969 38.855469 11.902344 39.699219 11.378906 C 43.410156 9.074219 36.871094 3.265625 35.199219 2.273438 C 29.828125 -0.917969 32.148438 3.753906 31.671875 7.308594 C 31.417969 9.203125 31.492188 11.269531 33.285156 12.382812 C 34.863281 13.359375 35.882812 10.652344 37.085938 10.554688 "/>
<path style=" stroke:none;fill-rule:nonzero;fill:rgb(0%,0%,0%);fill-opacity:1;" d="M 42.667969 23.625 C 38.636719 25.644531 41.859375 27.707031 43.5 28.574219 C 44.980469 29.355469 45.949219 28.769531 46.375 30.734375 C 46.53125 31.453125 47.285156 32.40625 48.011719 32.457031 C 51.015625 32.675781 50.820312 27.347656 50.328125 25.394531 C 49.355469 21.523438 42.824219 17.472656 42.667969 23.625 "/>
<path style=" stroke:none;fill-rule:nonzero;fill:rgb(71.372549%,94.901961%,38.039216%);fill-opacity:1;" d="M 43.972656 22.804688 C 43.8125 24.082031 40.96875 25.941406 42.609375 27.101562 C 43.894531 28.011719 45.847656 27.710938 47.0625 29.042969 C 47.261719 29.261719 47.09375 30.574219 47.300781 30.691406 C 49.304688 31.808594 50.523438 29.316406 49.785156 26.699219 C 49.355469 25.191406 48.714844 22.542969 47.0625 21.742188 C 45.753906 21.109375 43.824219 21.046875 43.972656 22.804688 "/>
<path style=" stroke:none;fill-rule:nonzero;fill:rgb(0%,0%,0%);fill-opacity:1;" d="M 23.902344 17.503906 C 27.082031 17.738281 31.09375 17.449219 32.160156 21.253906 C 33.289062 25.285156 33.851562 27.609375 33.363281 31.707031 C 32.824219 36.222656 32.371094 38.714844 30.214844 42.683594 C 29.664062 43.703125 27.445312 44.425781 26.371094 44.976562 C 23.980469 46.203125 24.015625 46.570312 23.308594 49.183594 C 25.4375 48.757812 26.636719 47.394531 28.453125 47.144531 C 32.476562 46.589844 31.714844 47.300781 32.335938 51.183594 C 33.703125 49.015625 34.445312 47.574219 36.632812 46.269531 C 38.71875 45.03125 40.640625 47.726562 42.667969 48.59375 C 45.546875 49.824219 47.164062 50.285156 45.9375 47.003906 C 45.199219 45.027344 42.34375 44.617188 40.742188 43.082031 C 37.082031 39.570312 37.246094 34.4375 37.648438 29.574219 C 38.113281 23.898438 44.171875 22.390625 47.777344 26.570312 C 44.496094 22.289062 41.46875 21.667969 36.609375 23.980469 C 38.3125 16.175781 38.292969 10.113281 34.117188 3.136719 C 36.527344 9.574219 36.070312 13.851562 34.828125 20.449219 C 32.21875 16.910156 30.277344 15.828125 25.839844 16.328125 C 22.019531 16.757812 18.898438 18.957031 20.578125 23.15625 C 20.214844 20.738281 21.28125 17.621094 23.902344 17.503906 "/>
<path style=" stroke:none;fill-rule:nonzero;fill:rgb(0%,0%,0%);fill-opacity:1;" d="M 21.765625 51.539062 C 20.675781 53.859375 19.726562 54.800781 17.011719 55.246094 C 14.132812 55.71875 14.726562 57.296875 14.433594 60.039062 C 14.261719 61.660156 8.214844 64.527344 6.460938 65.125 C 3.644531 66.078125 0.472656 68.164062 0.503906 71.792969 C 0.542969 76.417969 6.449219 75.640625 9.367188 75.878906 C 12.613281 76.140625 14.878906 75.675781 18.101562 74.96875 C 19.113281 74.746094 21.328125 73.785156 22.359375 74.03125 C 23.65625 74.335938 24.285156 76.289062 25.722656 76.4375 C 29.65625 76.851562 33.589844 77.265625 37.523438 77.679688 C 40.667969 78.011719 44.289062 76.253906 47.292969 75.4375 C 50.523438 74.558594 51.957031 76.445312 55.136719 77.089844 C 58.765625 77.828125 63.292969 77.089844 66.992188 77.089844 C 70.335938 77.089844 71.734375 75.832031 74.625 74.003906 C 76.347656 72.914062 74.152344 68.078125 73.023438 66.558594 C 70.601562 63.296875 70.105469 62 66.28125 61.144531 C 61.988281 60.1875 59.242188 60.316406 56.648438 56.808594 C 55.195312 54.847656 52.359375 51.785156 50.152344 50.710938 C 49.867188 50.574219 48.851562 51.566406 48.605469 51.417969 C 48.207031 51.179688 48.078125 50.3125 47.65625 50.125 C 45.882812 49.335938 42.847656 47.625 40.65625 46.511719 C 36.273438 44.289062 34.753906 46.324219 32.570312 50.359375 C 32.34375 48.925781 32.195312 47.472656 32.214844 46 C 29.613281 46.421875 28.21875 47.070312 26.277344 48.003906 C 25.464844 48.394531 24.089844 47.84375 23.585938 48.6875 C 23.019531 49.632812 22.386719 50.738281 21.765625 51.539062 "/>
<path style=" stroke:none;fill-rule:nonzero;fill:rgb(83.529412%,59.215686%,34.509804%);fill-opacity:1;" d="M 21.882812 72.851562 C 22.246094 68.964844 22.910156 66.539062 24.496094 62.960938 C 24.21875 64.253906 23.941406 65.550781 23.664062 66.847656 C 24.296875 65.980469 24.929688 65.117188 25.566406 64.253906 C 25.207031 65.578125 23.964844 67.457031 23.902344 68.730469 C 23.808594 70.6875 25.207031 73.421875 25.738281 75.324219 C 25.953125 76.105469 31.394531 76.074219 32.214844 76.148438 C 36.363281 76.53125 38.761719 76.589844 42.667969 75.617188 C 47.75 74.355469 47.964844 74.472656 48.726562 69.203125 C 49.65625 72.121094 49.59375 73.996094 52.882812 74.734375 C 52.945312 72.792969 53.476562 71.160156 54.070312 69.320312 C 54.136719 71.878906 53.957031 73.539062 55.289062 75.699219 C 55.90625 76.695312 60.351562 75.992188 61.4375 75.980469 C 62.5625 75.972656 74.890625 76.601562 73.949219 72.792969 C 72.882812 68.457031 71.460938 63.253906 66.519531 62.273438 C 64.089844 61.789062 61.179688 60.695312 58.703125 60.722656 C 56.300781 60.746094 54.300781 61.644531 51.8125 61.429688 C 53.65625 60.765625 55.515625 60.207031 57.394531 59.664062 C 55.175781 56.9375 51.136719 50.289062 47.539062 53.304688 C 46.890625 51.007812 47.085938 50.496094 44.882812 49.710938 C 42.851562 48.988281 41.265625 48.234375 39.410156 47.140625 C 35.679688 44.941406 33.652344 50.277344 31.976562 53.066406 C 31.699219 51.105469 31.425781 49.140625 31.148438 47.179688 C 25.960938 48.066406 24.027344 49.640625 21.347656 54.070312 C 20.578125 55.339844 19.777344 55.15625 18.4375 55.777344 C 15.609375 57.085938 15.875 56.265625 15.472656 59.945312 C 15.003906 64.253906 -0.589844 66.453125 2.132812 72.097656 C 3.894531 75.75 7.691406 74.671875 11.59375 74.929688 C 14.636719 75.125 11.394531 68.375 10.480469 67.316406 C 14.371094 68.238281 13.886719 71.765625 13.804688 74.851562 C 16.5 74.1875 19.191406 73.519531 21.882812 72.851562 "/>
<path style=" stroke:none;fill-rule:nonzero;fill:rgb(0%,0%,0%);fill-opacity:1;" d="M 17.25 18.5625 C 16.660156 19.796875 16.433594 21.132812 16.773438 22.449219 C 15.386719 20.957031 16.21875 19.976562 17.25 18.5625 "/>
<path style=" stroke:none;fill-rule:nonzero;fill:rgb(0%,0%,0%);fill-opacity:1;" d="M 24.734375 26.453125 C 24.488281 27.179688 24.335938 27.949219 24.140625 28.691406 C 25.203125 27.570312 25.800781 26.230469 24.734375 24.921875 C 24.761719 25.070312 24.738281 26.542969 24.734375 26.453125 "/>
<path style=" stroke:none;fill-rule:nonzero;fill:rgb(0%,0%,0%);fill-opacity:1;" d="M 30.078125 2.664062 C 30.523438 3.917969 30.457031 5.316406 29.960938 6.550781 C 30 5.253906 30.039062 3.960938 30.078125 2.664062 "/>
<path style=" stroke:none;fill-rule:nonzero;fill:rgb(0%,0%,0%);fill-opacity:1;" d="M 41.480469 11.261719 C 41.191406 12.210938 40.78125 12.789062 39.699219 13.027344 C 41 13.21875 41.625 12.550781 41.480469 11.261719 "/>
<path style=" stroke:none;fill-rule:nonzero;fill:rgb(0%,0%,0%);fill-opacity:1;" d="M 32.453125 25.273438 C 33.414062 27.335938 32.898438 29.125 32.691406 31.28125 C 32.691406 31.4375 32.691406 31.4375 32.691406 31.28125 C 32.503906 29.308594 32.746094 27.167969 32.453125 25.273438 "/>
<path style=" stroke:none;fill-rule:nonzero;fill:rgb(0%,0%,0%);fill-opacity:1;" d="M 76.160156 76.265625 C 77.304688 76.078125 80.371094 75.667969 81.148438 74.851562 C 83.246094 72.65625 79.195312 65.859375 76.777344 65.226562 C 70.621094 63.621094 69.207031 66.371094 67.832031 72.050781 C 66.605469 77.113281 73.59375 76.804688 76.160156 76.265625 "/>
<path style=" stroke:none;fill-rule:nonzero;fill:rgb(83.529412%,59.215686%,34.509804%);fill-opacity:1;" d="M 70.105469 75.324219 C 68.523438 72.765625 68.910156 66.308594 72.71875 65.316406 C 76.199219 64.40625 77.351562 68.65625 79.429688 70.023438 C 80.6875 70.855469 81.34375 72.066406 80.4375 73.558594 C 78.894531 76.101562 72.546875 75.324219 70.105469 75.324219 "/>
<path style=" stroke:none;fill-rule:nonzero;fill:rgb(0%,0%,0%);fill-opacity:1;" d="M 65.710938 79.5625 C 64.9375 79.289062 63.152344 78.808594 62.621094 78.152344 C 61.074219 76.234375 63.75 70.96875 66.054688 70.96875 C 71.09375 70.96875 71.636719 71.867188 72.882812 76.582031 C 73.914062 80.488281 67.335938 79.820312 65.710938 79.5625 "/>
<path style=" stroke:none;fill-rule:nonzero;fill:rgb(83.529412%,59.215686%,34.509804%);fill-opacity:1;" d="M 70.816406 78.621094 C 75.011719 74.042969 66.992188 69.085938 64.046875 74.734375 C 61.925781 78.800781 67.285156 78.621094 70.816406 78.621094 "/>
<path style=" stroke:none;fill-rule:nonzero;fill:rgb(0%,0%,0%);fill-opacity:1;" d="M 41.480469 21.390625 C 41.757812 21.351562 42.035156 21.308594 42.3125 21.269531 C 42.351562 21.507812 42.390625 21.742188 42.429688 21.976562 C 41.84375 21.90625 41.257812 21.808594 40.648438 21.742188 C 40.496094 21.792969 42.046875 21.246094 41.480469 21.390625 "/>
<path style=" stroke:none;fill-rule:nonzero;fill:rgb(41.960784%,70.196078%,21.176471%);fill-opacity:1;" d="M 47.300781 49.417969 C 44.304688 48.199219 41.457031 46.917969 38.574219 45.457031 C 35.777344 44.035156 33.644531 48.375 32.570312 50.359375 C 32.34375 48.925781 32.195312 47.46875 32.214844 46 C 30.851562 46.222656 29.484375 46.441406 28.121094 46.664062 C 26.613281 46.90625 26.496094 48.132812 24.851562 48.003906 C 25.371094 45.238281 29.992188 45.5 31.214844 43.015625 C 33.089844 39.222656 33.691406 36.894531 34.175781 32.695312 C 34.992188 25.621094 34.664062 17.238281 25.800781 16.914062 C 30.273438 16.75 33.019531 18.105469 35.066406 22.214844 C 35.832031 18.722656 37.816406 14.242188 36.726562 10.671875 C 37.449219 13.949219 34.585938 24.804688 37.085938 25.746094 C 36.65625 23.585938 41.113281 22.8125 42.90625 23.273438 C 39.703125 23.53125 36.964844 26.464844 36.660156 29.53125 C 36.386719 32.3125 35.542969 39.464844 37.660156 41.5 C 39.203125 42.984375 40.570312 44.695312 42.53125 45.597656 C 44.683594 46.589844 45.109375 48.992188 47.300781 49.417969 "/>
<path style=" stroke:none;fill-rule:nonzero;fill:rgb(0%,0%,0%);fill-opacity:1;" d="M 22.953125 46.945312 C 22.992188 48.359375 22.394531 49.699219 21.289062 50.59375 C 21.835938 49.46875 22.652344 47.851562 22.953125 46.945312 "/>
<path style=" stroke:none;fill-rule:nonzero;fill:rgb(47.843137%,60%,60%);fill-opacity:1;" d="M 52.167969 52.359375 C 52.816406 52.753906 53.550781 53.164062 54.242188 53.507812 C 55.964844 54.359375 57.140625 54.703125 59.050781 54.996094 C 60.433594 55.207031 61.675781 52.984375 62.265625 55.070312 C 62.765625 56.847656 55.328125 64.039062 53.804688 65.765625 C 47.910156 72.433594 41.320312 82.519531 31.679688 83.746094 C 27.460938 84.28125 23.5625 84.558594 23.425781 79.800781 C 23.296875 75.238281 24.171875 71.3125 26.753906 67.433594 C 30.617188 61.628906 35.761719 56.363281 40.164062 50.953125 C 41.871094 48.855469 44.582031 43.574219 47.417969 43.175781 C 47.484375 46.097656 49.367188 51.832031 52.167969 52.359375 "/>
<path style=" stroke:none;fill-rule:nonzero;fill:rgb(47.843137%,60%,60%);fill-opacity:1;" d="M 48.84375 54.011719 C 45.316406 54.132812 47.214844 57.128906 49.082031 55.894531 C 48.644531 55.699219 48.210938 55.5 47.777344 55.304688 C 48.203125 55.378906 48.644531 55.324219 49.082031 55.421875 C 49.226562 54.683594 49.371094 54.253906 49.4375 53.539062 C 49.472656 53.433594 48.710938 54.144531 48.84375 54.011719 "/>
<path style=" stroke:none;fill-rule:nonzero;fill:rgb(47.843137%,60%,60%);fill-opacity:1;" d="M 50.625 51.300781 C 50.28125 51.917969 49.933594 52.664062 49.792969 53.183594 C 49.675781 53.144531 49.636719 53.1875 49.675781 53.304688 C 50.28125 52.71875 50.71875 51.816406 50.863281 50.828125 C 50.804688 51.015625 50.476562 51.414062 50.625 51.300781 "/>
<path style=" stroke:none;fill-rule:nonzero;fill:rgb(72.156863%,80%,80%);fill-opacity:1;" d="M 48.25 54.480469 C 47.785156 54.691406 47.433594 54.691406 47.0625 55.070312 C 47.625 55.078125 47.777344 54.714844 48.25 54.480469 "/>
<path style=" stroke:none;fill-rule:nonzero;fill:rgb(0%,0%,0%);fill-opacity:1;" d="M 70.699219 17.621094 C 68.433594 21.492188 65.867188 26.492188 62.859375 29.695312 C 60.164062 32.5625 58.972656 32.605469 57.75 36.226562 C 59.121094 36.5 60.460938 37.195312 61.203125 38.390625 C 62.300781 40.152344 62.988281 38.867188 64.636719 37.867188 C 66.300781 36.855469 66.46875 33.570312 68.609375 31.980469 C 72.085938 29.394531 75.1875 26.949219 78.238281 23.921875 C 79.746094 22.425781 82.351562 16.476562 80.363281 14.929688 C 76.277344 11.75 74.113281 16.175781 70.699219 17.621094 "/>
<path style=" stroke:none;fill-rule:nonzero;fill:rgb(80%,40%,0%);fill-opacity:1;" d="M 73.191406 27.394531 C 75.464844 25.457031 77.273438 23.496094 78.65625 20.917969 C 79.175781 19.949219 80.484375 18.121094 80.195312 17.046875 C 79.480469 14.386719 77.453125 14.292969 75.449219 15.617188 C 72.457031 17.601562 71.039062 18.957031 69.035156 21.976562 C 67.484375 24.316406 66.109375 26.789062 64.652344 29.183594 C 63.175781 31.605469 59.246094 32.835938 58.9375 35.640625 C 60.367188 35.902344 61.476562 38.253906 62.382812 38.347656 C 64.375 38.550781 64.285156 35.722656 64.859375 35.015625 C 67.390625 31.90625 69.980469 29.835938 73.191406 27.394531 "/>
<path style=" stroke:none;fill-rule:nonzero;fill:rgb(0%,0%,0%);fill-opacity:1;" d="M 78.65625 16.324219 C 77.871094 16.105469 76.359375 17.828125 77.40625 18.035156 C 78.414062 18.234375 78.789062 17.175781 78.65625 16.324219 "/>
<path style=" stroke:none;fill-rule:nonzero;fill:rgb(0%,0%,0%);fill-opacity:1;" d="M 61.910156 32.222656 C 63.027344 33.035156 63.882812 34.203125 64.285156 35.519531 C 63.207031 34.476562 62.019531 33.585938 60.601562 33.046875 C 60.605469 33.046875 62.304688 32.066406 61.910156 32.222656 "/>
<path style=" stroke:none;fill-rule:nonzero;fill:rgb(0%,0%,0%);fill-opacity:1;" d="M 64.285156 26.453125 C 63.636719 28.214844 62.4375 29.285156 61.078125 30.457031 C 62.144531 29.257812 63.613281 27.53125 64.285156 26.453125 "/>
<path style=" stroke:none;fill-rule:nonzero;fill:rgb(0%,0%,0%);fill-opacity:1;" d="M 80.316406 14.089844 C 81.304688 14.722656 81.8125 15.734375 81.980469 16.914062 C 82.230469 15.472656 81.910156 14.15625 80.316406 14.089844 "/>
<path style=" stroke:none;fill-rule:nonzero;fill:rgb(0%,0%,0%);fill-opacity:1;" d="M 54.664062 40.585938 C 55.691406 39.410156 56.507812 37.96875 57.394531 36.640625 C 58.050781 35.660156 60.558594 37.828125 60.96875 38.539062 C 62.183594 40.652344 59.394531 41.8125 57.75 43.292969 C 57.554688 41.742188 56.261719 40.628906 54.664062 40.585938 "/>
<path style=" stroke:none;fill-rule:nonzero;fill:rgb(90.196078%,72.156863%,0%);fill-opacity:1;" d="M 58.226562 41.761719 C 62.304688 39.453125 58.042969 36.308594 56.800781 39.171875 C 56.234375 40.480469 56.855469 40.605469 58.226562 41.761719 "/>
<path style=" stroke:none;fill-rule:nonzero;fill:rgb(0%,0%,0%);fill-opacity:1;" d="M 64.402344 38.933594 C 62.90625 39.488281 61.566406 40.628906 60.839844 41.761719 C 62.027344 40.824219 63.269531 39.941406 64.402344 38.933594 "/>
<path style=" stroke:none;fill-rule:nonzero;fill:rgb(100%,94.901961%,80%);fill-opacity:1;" d="M 58.582031 37.875 C 58.015625 38.761719 57.402344 39.679688 56.921875 40.585938 C 57.699219 40.3125 58.535156 39.171875 59.414062 38.347656 C 59.164062 37.917969 58.910156 38.046875 58.582031 37.875 "/>
<path style=" stroke:none;fill-rule:nonzero;fill:rgb(50.196078%,25.098039%,0%);fill-opacity:1;" d="M 60.007812 39.054688 C 59.292969 39.84375 58.480469 40.667969 57.988281 41.527344 C 58.109375 41.488281 58.148438 41.527344 58.109375 41.644531 C 58.894531 40.734375 60.058594 40.121094 60.007812 39.054688 "/>
<path style=" stroke:none;fill-rule:nonzero;fill:rgb(50.196078%,25.098039%,0%);fill-opacity:1;" d="M 57.871094 37.640625 C 57.316406 38.464844 56.761719 39.289062 56.207031 40.113281 C 56.328125 40.074219 56.367188 40.113281 56.324219 40.230469 C 56.507812 40.121094 56.523438 40.292969 56.5625 40.351562 C 57.203125 39.359375 58.007812 38.207031 57.871094 37.640625 "/>
<path style=" stroke:none;fill-rule:nonzero;fill:rgb(0%,0%,0%);fill-opacity:1;" d="M 54.664062 40.703125 C 53.980469 41.976562 55.804688 44.976562 57.394531 43.765625 C 58.726562 42.75 55.367188 40.808594 54.664062 40.703125 "/>
<path style=" stroke:none;fill-rule:nonzero;fill:rgb(50.196078%,25.098039%,0%);fill-opacity:1;" d="M 55.257812 41.527344 C 55.511719 42.421875 55.726562 43.042969 56.800781 42.824219 C 56.5 42.019531 55.96875 41.867188 55.257812 41.527344 "/>
<path style=" stroke:none;fill-rule:nonzero;fill:rgb(0%,0%,0%);fill-opacity:1;" d="M 50.746094 53.773438 C 50.125 55.292969 50.453125 57.625 48.011719 57.308594 C 43.179688 56.679688 50.269531 52.011719 50.269531 49.582031 C 50.269531 48.023438 54.371094 40.128906 56.207031 42.117188 C 57.03125 43.007812 53.316406 46.050781 52.703125 47.003906 C 51.308594 49.175781 52.585938 51.859375 50.746094 53.773438 "/>
<path style=" stroke:none;fill-rule:nonzero;fill:rgb(47.843137%,60%,60%);fill-opacity:1;" d="M 54.542969 43.175781 C 53.601562 44.460938 52.542969 45.660156 51.457031 46.828125 C 52.304688 45.578125 53.730469 43.789062 54.542969 43.175781 "/>
<path style=" stroke:none;fill-rule:nonzero;fill:rgb(0%,0%,0%);fill-opacity:1;" d="M 50.269531 51.066406 C 48.921875 48.304688 47.496094 46.582031 47.417969 43.175781 C 44.785156 43.546875 42.453125 48.140625 40.863281 50.09375 C 36.175781 55.859375 31.484375 61.621094 26.792969 67.386719 C 23.933594 70.902344 23.425781 75.25 23.425781 79.566406 C 23.425781 84.472656 27.316406 84.300781 31.683594 83.746094 C 41.539062 82.492188 48.398438 71.882812 54.40625 65.082031 C 56.027344 63.25 62.976562 56.34375 61.96875 54.539062 C 61.613281 53.90625 59.207031 55.019531 57.988281 54.835938 C 56.371094 54.585938 55.359375 53.746094 53.832031 53.304688 C 52.539062 52.929688 52.328125 51.726562 51.21875 52.949219 C 54.007812 54.40625 58.105469 57.425781 61.195312 55.1875 C 55.804688 62.0625 50.3125 69.265625 43.976562 75.316406 C 41.367188 77.804688 37.378906 82.121094 33.5625 82.542969 C 31.765625 82.738281 28.410156 83.617188 26.632812 82.980469 C 23.976562 82.027344 24.617188 80.578125 24.617188 78.085938 C 24.617188 74.261719 25.730469 70.183594 28.195312 67.15625 C 34.316406 59.625 40.09375 51.574219 46.707031 44.472656 C 46.390625 47.285156 48.296875 49.703125 49.792969 51.890625 C 49.953125 51.613281 50.109375 51.339844 50.269531 51.066406 "/>
<path style=" stroke:none;fill-rule:nonzero;fill:rgb(72.156863%,80%,80%);fill-opacity:1;" d="M 45.636719 56.246094 C 46.101562 56.628906 45.878906 57.175781 46.707031 57.425781 C 39.875 65.539062 32.738281 73.847656 25.207031 81.328125 C 24.425781 77.597656 31.082031 72.734375 33.371094 70.199219 C 37.402344 65.746094 42.363281 61.230469 45.636719 56.246094 "/>
<path style=" stroke:none;fill-rule:nonzero;fill:rgb(34.901961%,50.196078%,50.196078%);fill-opacity:1;" d="M 46.230469 46.589844 C 42.113281 51.617188 37.996094 56.644531 33.878906 61.671875 C 30.5 65.800781 26.753906 69.636719 25.445312 74.972656 C 30.09375 69.554688 34.738281 64.136719 39.386719 58.722656 C 40.867188 56.996094 42.355469 55.273438 43.84375 53.554688 C 46.550781 50.421875 47.648438 50.316406 46.230469 46.589844 "/>
<path style=" stroke:none;fill-rule:nonzero;fill:rgb(34.901961%,50.196078%,50.196078%);fill-opacity:1;" d="M 54.902344 55.660156 C 56.320312 56.023438 57.714844 56.457031 59.175781 56.601562 C 50.59375 66.371094 43.042969 79.28125 29.722656 82.390625 C 34.050781 78.105469 38.117188 73.503906 42.3125 69.082031 C 46.285156 64.894531 51.933594 60.28125 54.902344 55.660156 "/>
<path style=" stroke:none;fill-rule:nonzero;fill:rgb(34.901961%,50.196078%,50.196078%);fill-opacity:1;" d="M 47.539062 50.121094 C 43.570312 54.75 39.605469 59.375 35.640625 64 C 32.984375 67.097656 25.40625 73.019531 25.089844 77.328125 C 29.4375 72.296875 33.785156 67.269531 38.128906 62.242188 C 40.105469 59.957031 48.296875 52.460938 47.539062 50.121094 "/>
<path style=" stroke:none;fill-rule:nonzero;fill:rgb(34.901961%,50.196078%,50.196078%);fill-opacity:1;" d="M 52.761719 54.597656 C 44.527344 63.824219 36.292969 73.046875 28.058594 82.273438 C 30.191406 81.621094 31.980469 78.851562 33.519531 77.265625 C 36.582031 74.109375 39.648438 70.953125 42.710938 67.796875 C 46.648438 63.742188 50.453125 59.554688 54.308594 55.421875 C 53.875 55.234375 53.191406 54.714844 52.761719 54.597656 "/>
<path style=" stroke:none;fill-rule:nonzero;fill:rgb(72.156863%,80%,80%);fill-opacity:1;" d="M 47.300781 57.542969 C 47.703125 57.585938 47.851562 57.886719 48.367188 57.660156 C 44.4375 61.515625 40.941406 65.867188 37.203125 69.90625 C 34.570312 72.753906 29.035156 81.074219 25.566406 81.917969 C 32.5625 73.589844 40.300781 65.878906 47.300781 57.542969 "/>
<path style=" stroke:none;fill-rule:nonzero;fill:rgb(72.156863%,80%,80%);fill-opacity:1;" d="M 59.890625 56.363281 C 56.277344 57.882812 52.902344 63.742188 50.359375 66.636719 C 47.851562 69.492188 45.335938 73.363281 42.3125 75.617188 C 38.003906 78.828125 35.40625 81.066406 29.722656 82.390625 C 34.605469 81.683594 38.105469 80.28125 41.953125 76.738281 C 48.210938 70.980469 55.511719 63.191406 59.890625 56.363281 "/>
<path style=" stroke:none;fill-rule:nonzero;fill:rgb(72.156863%,80%,80%);fill-opacity:1;" d="M 24.972656 75.207031 C 27.070312 68.707031 31.128906 64.277344 35.464844 59.117188 C 37.289062 56.949219 39.054688 54.738281 40.835938 52.539062 C 42.507812 50.472656 46.523438 47.183594 46.707031 44.472656 C 40.347656 51.304688 34.789062 59.042969 28.90625 66.28125 C 26.902344 68.746094 24.929688 71.964844 24.972656 75.207031 "/>
<path style=" stroke:none;fill-rule:nonzero;fill:rgb(0%,0%,0%);fill-opacity:1;" d="M 61.078125 58.601562 C 60.863281 58.808594 60.730469 59.109375 60.484375 59.191406 C 61.484375 59.402344 62.566406 59.679688 63.570312 59.898438 C 62.753906 59.550781 61.867188 59.050781 61.078125 58.601562 "/>
<path style=" stroke:none;fill-rule:nonzero;fill:rgb(0%,0%,0%);fill-opacity:1;" d="M 73.429688 77.089844 C 73.347656 77.378906 73.304688 77.644531 73.191406 77.914062 C 74.074219 77.679688 75.085938 77.414062 75.921875 77.089844 C 75.152344 77.105469 73.90625 77.074219 73.429688 77.089844 "/>
<path style=" stroke:none;fill-rule:nonzero;fill:rgb(0%,0%,0%);fill-opacity:1;" d="M 49.320312 75.679688 C 48.171875 75.992188 47.023438 76.304688 45.875 76.621094 C 47.417969 76.460938 48.960938 76.304688 50.507812 76.148438 C 50.109375 75.992188 49.714844 75.835938 49.320312 75.679688 "/>
<path style=" stroke:none;fill-rule:nonzero;fill:rgb(0%,0%,0%);fill-opacity:1;" d="M 21.882812 74.617188 C 20.449219 75.132812 18.867188 75.414062 17.371094 75.796875 C 19.171875 75.558594 21.015625 75.386719 22.832031 75.207031 C 22.566406 75.121094 22.019531 74.6875 21.882812 74.617188 "/>
<path style=" stroke:none;fill-rule:nonzero;fill:rgb(0%,0%,0%);fill-opacity:1;" d="M 13.804688 59.308594 C 13.421875 60.660156 12.019531 61.136719 10.71875 61.78125 C 11.734375 61.035156 12.902344 60.152344 13.804688 59.308594 "/>
<path style=" stroke:none;fill-rule:nonzero;fill:rgb(0%,0%,0%);fill-opacity:1;" d="M 0.0273438 72.261719 C 0.53125 73.078125 0.90625 74 1.335938 74.851562 C 0.261719 74.332031 -0.113281 73.332031 0.0273438 72.261719 "/>
</g>
</svg>
