<?xml version="1.0" encoding="UTF-8"?>
<svg xmlns="http://www.w3.org/2000/svg" xmlns:xlink="http://www.w3.org/1999/xlink" width="60px" height="85px" viewBox="0 0 60 85" version="1.1">
<defs>
<linearGradient id="linear0" gradientUnits="userSpaceOnUse" x1="274.24179" y1="474.06049" x2="37.908848" y2="256.00821" gradientTransform="matrix(1.05027,0,0,0.952136,0.935217,-140.2898)">
<stop offset="0" style="stop-color:rgb(61.960784%,49.411765%,30.196078%);stop-opacity:1;"/>
<stop offset="1" style="stop-color:rgb(84.705882%,63.529412%,47.45098%);stop-opacity:1;"/>
</linearGradient>
<linearGradient id="linear1" gradientUnits="userSpaceOnUse" x1="201.36891" y1="397.98041" x2="52.216942" y2="242.2809" gradientTransform="matrix(1.035583,0,0,0.96564,0.935217,-143.6981)">
<stop offset="0" style="stop-color:rgb(98.823529%,62.352941%,23.529412%);stop-opacity:1;"/>
<stop offset="1" style="stop-color:rgb(96.470588%,89.411765%,49.803922%);stop-opacity:1;"/>
</linearGradient>
<linearGradient id="linear2" gradientUnits="userSpaceOnUse" x1="198.25325" y1="471.31079" x2="71.495743" y2="282.78864" gradientTransform="matrix(0.924757,-0.31626,0.332881,0.967521,0.935217,-140.2898)">
<stop offset="0" style="stop-color:rgb(77.647059%,51.764706%,3.137255%);stop-opacity:1;"/>
<stop offset="1" style="stop-color:rgb(82.745098%,66.666667%,36.078431%);stop-opacity:1;"/>
</linearGradient>
</defs>
<g id="surface1">
<path style=" stroke:none;fill-rule:nonzero;fill:rgb(31.764706%,31.764706%,35.294118%);fill-opacity:0.262745;" d="M 2.097656 21.34375 L 20.207031 8.628906 C 20.480469 8.4375 20.851562 8.496094 21.039062 8.765625 L 41.460938 27.40625 C 41.648438 27.671875 41.578125 28.042969 41.304688 28.234375 L 22.65625 44.320312 C 22.382812 44.511719 22.011719 44.449219 21.824219 44.183594 L 1.941406 22.171875 C 1.753906 21.902344 1.824219 21.535156 2.097656 21.34375 Z M 2.097656 21.34375 "/>
<path style="fill-rule:nonzero;fill:url(#linear0);stroke-width:2;stroke-linecap:butt;stroke-linejoin:miter;stroke:rgb(94.901961%,74.509804%,38.039216%);stroke-opacity:0.827451;stroke-miterlimit:4;" d="M 19.445313 174.716912 L 177.600521 63.424632 C 179.988542 61.749265 183.263542 62.296324 184.901042 64.621324 L 363.217969 227.781618 C 364.855469 230.106618 364.241406 233.354779 361.853385 235.030147 L 199.024479 375.829412 C 196.602344 377.504779 193.361458 376.991912 191.723958 374.632721 L 18.080729 181.965441 C 16.443229 179.640441 17.057292 176.392279 19.445313 174.716912 Z M 19.445313 174.716912 " transform="matrix(0.114504,0,0,0.114247,0,0)"/>
<path style=" stroke:none;fill-rule:nonzero;fill:rgb(31.764706%,31.764706%,35.294118%);fill-opacity:0.262745;" d="M 2.976562 17.945312 L 22.699219 7.902344 C 22.996094 7.75 23.355469 7.863281 23.503906 8.152344 L 41.089844 29.480469 C 41.238281 29.769531 41.117188 30.125 40.816406 30.277344 L 20.085938 43.582031 C 19.785156 43.734375 19.425781 43.621094 19.277344 43.328125 L 2.703125 18.742188 C 2.554688 18.449219 2.675781 18.09375 2.976562 17.945312 Z M 2.976562 17.945312 "/>
<path style="fill-rule:nonzero;fill:url(#linear1);stroke-width:2;stroke-linecap:butt;stroke-linejoin:miter;stroke:rgb(98.823529%,94.117647%,20.784314%);stroke-opacity:1;stroke-miterlimit:4;" d="M 27.052865 145.244118 L 199.297396 57.338603 C 201.924219 56.005147 205.06276 56.996691 206.359115 59.561029 L 359.908854 246.210662 C 361.205208 248.740809 360.147656 251.852206 357.554948 253.185662 L 176.508854 369.640809 C 173.882031 370.974265 170.74349 369.982721 169.447135 367.452574 L 24.698958 152.219118 C 23.402604 149.688971 24.460156 146.577574 27.052865 145.244118 Z M 27.052865 145.244118 " transform="matrix(0.114504,0,0,0.114247,0,0)"/>
<path style=" stroke:none;fill-rule:nonzero;fill:rgb(31.764706%,31.764706%,35.294118%);fill-opacity:0.262745;" d="M 8.761719 10.671875 L 29.6875 3.449219 C 30.003906 3.34375 30.34375 3.503906 30.449219 3.8125 L 44.90625 27.359375 C 45.015625 27.667969 44.84375 28.003906 44.527344 28.113281 L 22.148438 38.425781 C 21.832031 38.535156 21.492188 38.375 21.386719 38.066406 L 8.382812 11.425781 C 8.273438 11.117188 8.445312 10.78125 8.761719 10.671875 Z M 8.761719 10.671875 "/>
<path style="fill-rule:nonzero;fill:url(#linear2);stroke-width:1.999999;stroke-linecap:butt;stroke-linejoin:miter;stroke:rgb(100%,73.72549%,9.019608%);stroke-opacity:1;stroke-miterlimit:4;" d="M 79.384635 81.135662 L 262.136458 17.916176 C 264.89974 16.993015 267.901823 18.394853 268.822917 21.095956 L 395.08099 227.200368 C 396.002083 229.901471 394.535156 232.841912 391.771875 233.799265 L 196.329427 324.098162 C 193.566146 325.021324 190.598177 323.619485 189.642969 320.918382 L 76.075521 87.734559 C 75.154427 85.033456 76.621354 82.093015 79.384635 81.135662 Z M 79.384635 81.135662 " transform="matrix(0.114504,0,0,0.114247,0,0)"/>
</g>
</svg>
